#!OML:ASF Y:\EmotionMaleHayes\Project 1\Capture day 1\Session 1\Male1.ASF
:FULLY-SPECIFIED
:DEGREES
1126
root 36.5668 16.7368 14.042 -403.584 -67.3855 -318.415
lowerback 9.45254 -0.124928 -16.7856
upperback 2.73113 -1.97849 -2.25523
thorax -1.91442 -1.05574 7.21146
lowerneck -16.6024 -7.66885 -6.19105
upperneck 27.6328 -12.3549 8.16562
head 12.9158 -5.28879 2.09368
rclavicle 4.00054e-014 -1.35174e-014
rhumerus -44.6039 -3.13901 -70.3933
rradius 30.6999
rwrist 0.382024
rhand -10.8677 -34.2867
rfingers 7.12502
rthumb 15.148 -63.7123
lclavicle 4.00054e-014 -1.35174e-014
lhumerus -13.8183 0.594961 65.0416
lradius 38.1582
lwrist 1.80631
lhand -19.2959 -24.6025
lfingers 7.12502
lthumb 7.01948 5.2611
rfemur -22.5093 -12.6246 10.2266
rtibia 29.2423
rfoot -16.123 -9.94156
rtoes 23.1158
lfemur 17.5908 4.18035 -30.119
ltibia 2.88041
lfoot -15.6898 4.99724
ltoes -22.8167
1127
root 36.4312 16.7074 14.0924 -403.954 -67.5128 -317.783
lowerback 9.11917 -0.170304 -16.9871
upperback 2.67283 -1.98833 -2.181
thorax -1.7771 -1.06694 7.39367
lowerneck -16.4886 -7.62851 -6.09719
upperneck 27.4414 -12.261 8.05108
head 12.7886 -5.25924 2.05544
rclavicle 5.11871e-015 -3.4191e-014
rhumerus -45.25 -3.76538 -69.4723
rradius 30.7941
rwrist -0.299538
rhand -10.8621 -34.1558
rfingers 7.12502
rthumb 15.1534 -63.581
lclavicle 5.11871e-015 -3.4191e-014
lhumerus -13.1275 0.712109 64.9436
lradius 38.5304
lwrist 2.01225
lhand -19.3698 -24.9389
lfingers 7.12502
lthumb 6.94817 4.92712
rfemur -22.351 -12.8243 10.2412
rtibia 25.7753
rfoot -16.2113 -10.1407
rtoes 25.0397
lfemur 17.938 4.23284 -30.1965
ltibia 2.80536
lfoot -16.1851 4.98792
ltoes -22.4633
1128
root 36.2863 16.6797 14.1478 -404.223 -67.4146 -317.356
lowerback 8.86387 -0.280417 -17.2166
upperback 2.63553 -2.10206 -2.14721
thorax -1.63437 -1.1321 7.55811
lowerneck -16.4159 -7.60917 -6.11131
upperneck 27.2847 -12.2309 8.11472
head 12.7134 -5.2453 2.08942
rclavicle 8.94531e-016 -5.96354e-015
rhumerus -45.9423 -4.44392 -68.542
rradius 30.8143
rwrist -0.721889
rhand -11.0518 -34.1376
rfingers 7.12502
rthumb 14.9706 -63.5765
lclavicle 8.94531e-016 -5.96354e-015
lhumerus -12.7732 0.642538 64.7987
lradius 39.2322
lwrist 2.2907
lhand -19.5427 -25.0254
lfingers 7.12502
lthumb 6.78129 4.84596
rfemur -21.8304 -13.03 10.0018
rtibia 22.179
rfoot -16.0976 -10.3533
rtoes 24.7958
lfemur 18.4215 4.23014 -30.3966
ltibia 2.7885
lfoot -16.7303 4.82691
ltoes -21.8503
1129
root 36.1395 16.6514 14.2051 -404.543 -67.1373 -316.876
lowerback 8.66099 -0.402305 -17.466
upperback 2.60944 -2.24766 -2.20445
thorax -1.50304 -1.21408 7.63759
lowerneck -16.5288 -7.66982 -6.06776
upperneck 27.2827 -12.3265 8.11003
head 12.7412 -5.27934 2.05925
rclavicle 6.2965e-014 6.87795e-014
rhumerus -46.6249 -5.10978 -67.7321
rradius 30.7802
rwrist -1.08583
rhand -11.3354 -34.3365
rfingers 7.12502
rthumb 14.6974 -63.7955
lclavicle 6.2965e-014 6.87795e-014
lhumerus -12.2037 0.927952 64.6982
lradius 39.6698
lwrist 2.25444
lhand -19.88 -25.1145
lfingers 7.12502
lthumb 6.45571 4.7671
rfemur -21.2453 -13.0996 9.52741
rtibia 18.6589
rfoot -16.1732 -10.5134
rtoes 24.7334
lfemur 18.9589 4.40857 -30.6651
ltibia 2.69397
lfoot -16.9872 4.19768
ltoes -20.992
1130
root 35.9952 16.6251 14.2534 -404.94 -66.9094 -316.35
lowerback 8.54792 -0.468471 -17.7548
upperback 2.5621 -2.34429 -2.25807
thorax -1.45513 -1.26408 7.74154
lowerneck -16.4832 -7.75782 -6.0302
upperneck 27.1439 -12.4677 8.16263
head 12.69 -5.33594 2.04898
rclavicle -1.44119e-015 -6.67916e-014
rhumerus -47.3265 -5.94662 -66.8427
rradius 30.7533
rwrist -1.55345
rhand -11.47 -34.6655
rfingers 7.12502
rthumb 14.5677 -64.134
lclavicle -1.44119e-015 -6.67916e-014
lhumerus -11.7592 0.533426 64.5573
lradius 40.3269
lwrist 2.92337
lhand -20.4146 -24.97
lfingers 7.12502
lthumb 5.93951 4.92678
rfemur -20.7333 -12.9498 9.05965
rtibia 15.4141
rfoot -16.2269 -10.5911
rtoes 23.8947
lfemur 19.4211 4.65583 -30.8377
ltibia 2.69627
lfoot -17.041 3.41856
ltoes -19.9809
1131
root 35.8639 16.5956 14.3065 -405.536 -67.0871 -315.529
lowerback 8.38133 -0.481375 -17.7763
upperback 2.46478 -2.3355 -2.24564
thorax -1.46859 -1.2517 7.76232
lowerneck -16.4491 -7.81298 -6.0592
upperneck 27.0082 -12.5301 8.18821
head 12.6379 -5.36688 2.05317
rclavicle -7.67806e-014 -6.99722e-014
rhumerus -47.8745 -6.82952 -65.8742
rradius 30.5136
rwrist -1.83982
rhand -11.765 -34.9458
rfingers 7.12502
rthumb 14.2834 -64.4345
lclavicle -7.67806e-014 -6.99722e-014
lhumerus -11.6558 -0.201846 64.3879
lradius 41.3444
lwrist 4.10592
lhand -20.8544 -24.8047
lfingers 7.12502
lthumb 5.51496 5.10349
rfemur -20.7629 -12.7097 8.9245
rtibia 12.8381
rfoot -15.963 -10.5568
rtoes 22.9687
lfemur 19.6408 4.74257 -31.0243
ltibia 2.86424
lfoot -17.6123 4.27725
ltoes -22.8916
1132
root 35.7162 16.5615 14.351 -406.005 -67.0398 -314.741
lowerback 7.97366 -0.586201 -18.1261
upperback 2.40585 -2.41479 -2.17369
thorax -1.26197 -1.30447 8.02301
lowerneck -16.5435 -7.86593 -6.21898
upperneck 26.9255 -12.5396 8.18926
head 12.6364 -5.38309 2.07424
rclavicle 5.07398e-014 6.08281e-014
rhumerus -48.3315 -7.60022 -64.8789
rradius 30.2254
rwrist -1.84258
rhand -12.2027 -35.1922
rfingers 7.12502
rthumb 13.8616 -64.7103
lclavicle 5.07398e-014 6.08281e-014
lhumerus -11.6645 -0.245301 64.422
lradius 42.3262
lwrist 4.63021
lhand -21.258 -24.7102
lfingers 7.12502
lthumb 5.12526 5.20785
rfemur -20.7437 -12.4575 8.60226
rtibia 10.4183
rfoot -15.9011 -10.9986
rtoes 23.1312
lfemur 19.8496 5.11284 -31.0788
ltibia 3.08183
lfoot -17.9342 4.38176
ltoes -25.2281
1133
root 35.567 16.5305 14.4058 -406.808 -66.9749 -313.739
lowerback 7.70084 -0.614537 -18.3306
upperback 2.35247 -2.41504 -2.20537
thorax -1.15855 -1.31069 8.0909
lowerneck -16.5831 -7.92629 -6.31039
upperneck 26.8429 -12.5931 8.2142
head 12.6249 -5.4119 2.08724
rclavicle -8.19987e-015 1.22451e-013
rhumerus -48.9653 -8.421 -63.9541
rradius 30.0675
rwrist -1.79993
rhand -12.597 -35.3785
rfingers 7.12502
rthumb 13.4816 -64.9221
lclavicle -8.19987e-015 1.22451e-013
lhumerus -10.9927 0.809815 64.7293
lradius 42.2513
lwrist 3.84483
lhand -21.5426 -24.9216
lfingers 7.12502
lthumb 4.85041 5.00292
rfemur -20.8823 -13.0833 8.37233
rtibia 8.95971
rfoot -15.7265 -10.7164
rtoes 21.2667
lfemur 20.2427 5.27413 -31.4454
ltibia 3.17183
lfoot -17.9627 4.39913
ltoes -26.571
1134
root 35.4191 16.5018 14.4626 -407.114 -67.0142 -313.379
lowerback 7.65742 -0.679427 -18.1674
upperback 2.27453 -2.48646 -2.22565
thorax -1.20907 -1.33551 7.98447
lowerneck -16.6986 -7.962 -6.27091
upperneck 26.8982 -12.6154 8.08
head 12.6587 -5.42861 2.02196
rclavicle -2.10712e-014 6.36111e-015
rhumerus -49.64 -9.27851 -63.0841
rradius 29.8782
rwrist -1.73399
rhand -13.0896 -35.4615
rfingers 7.12502
rthumb 13.0069 -65.036
lclavicle -2.10712e-014 6.36111e-015
lhumerus -10.7671 1.11066 64.8474
lradius 42.7444
lwrist 3.92884
lhand -21.6654 -25.0695
lfingers 7.12502
lthumb 4.73186 4.85764
rfemur -21.1119 -14.1054 8.49011
rtibia 8.32853
rfoot -15.9091 -10.2587
rtoes 19.7666
lfemur 20.712 5.00007 -31.7372
ltibia 3.36333
lfoot -17.9368 4.29855
ltoes -25.062
1135
root 35.2749 16.473 14.5145 -407.299 -66.9847 -313.067
lowerback 7.66469 -0.799914 -18.1106
upperback 2.13061 -2.65519 -2.19362
thorax -1.32594 -1.39831 8.00272
lowerneck -16.9043 -7.92229 -6.269
upperneck 27.0677 -12.4979 7.85801
head 12.74 -5.39271 1.95146
rclavicle -8.49804e-015 -2.38542e-015
rhumerus -50.303 -10.052 -62.1171
rradius 29.7225
rwrist -1.60832
rhand -13.5239 -35.769
rfingers 7.12502
rthumb 12.5881 -65.3697
lclavicle -8.49804e-015 -2.38542e-015
lhumerus -11.0545 0.822203 64.8882
lradius 43.7809
lwrist 4.88012
lhand -21.7314 -25.2437
lfingers 7.12502
lthumb 4.66811 4.6849
rfemur -21.4915 -14.8402 8.52829
rtibia 8.17105
rfoot -15.7958 -10.3496
rtoes 21.5908
lfemur 21.0163 4.77912 -31.9979
ltibia 3.67649
lfoot -18.455 5.0833
ltoes -27.3028
1136
root 35.1296 16.4419 14.5625 -407.797 -66.9471 -312.38
lowerback 7.54043 -0.810881 -18.1827
upperback 2.00247 -2.66168 -2.20501
thorax -1.39135 -1.38719 8.02836
lowerneck -16.8645 -7.93199 -6.32871
upperneck 27.0401 -12.4952 7.86254
head 12.725 -5.39918 1.96473
rclavicle 0 7.55382e-014
rhumerus -51.12 -11.0467 -61.0613
rradius 29.6538
rwrist -1.44033
rhand -13.7651 -36.3499
rfingers 7.12502
rthumb 12.3556 -65.9648
lclavicle 0 7.55382e-014
lhumerus -10.8363 0.899167 65.1649
lradius 44.1394
lwrist 5.25086
lhand -21.9073 -25.5999
lfingers 7.12502
lthumb 4.49823 4.33233
rfemur -21.9244 -15.2286 8.43925
rtibia 8.35323
rfoot -15.6419 -10.8944
rtoes 21.5418
lfemur 21.1997 4.62191 -32.3789
ltibia 4.04258
lfoot -18.8752 5.4117
ltoes -27.9056
1137
root 34.9733 16.4104 14.6095 -408.211 -67.0093 -311.861
lowerback 7.30664 -0.825266 -18.1651
upperback 1.95902 -2.62962 -2.18177
thorax -1.31528 -1.3743 8.03348
lowerneck -16.5954 -7.99666 -6.45402
upperneck 26.7141 -12.5543 7.97075
head 12.5616 -5.43977 2.02517
rclavicle -1.64991e-014 7.39479e-014
rhumerus -51.7902 -12.0481 -60.0725
rradius 29.4398
rwrist -1.27494
rhand -14.0187 -36.7424
rfingers 7.12502
rthumb 12.111 -66.3719
lclavicle -1.64991e-014 7.39479e-014
lhumerus -10.8611 0.81987 65.3956
lradius 44.7872
lwrist 5.71168
lhand -22.4178 -25.7153
lfingers 7.12502
lthumb 4.00532 4.22676
rfemur -22.2708 -15.3994 8.42897
rtibia 8.88863
rfoot -15.959 -11.6364
rtoes 22.5728
lfemur 21.4743 4.31894 -32.6767
ltibia 4.52956
lfoot -19.4406 5.78011
ltoes -27.4901
1138
root 34.8159 16.3833 14.6604 -408.589 -67.1219 -311.431
lowerback 7.13839 -0.895852 -17.9959
upperback 1.93419 -2.67205 -2.14336
thorax -1.24232 -1.39875 7.9787
lowerneck -16.4562 -8.03763 -6.60718
upperneck 26.377 -12.5451 8.03962
head 12.4141 -5.45168 2.08262
rclavicle -8.64713e-015 -8.98507e-014
rhumerus -52.1523 -13.0237 -59.1191
rradius 28.9434
rwrist -0.998422
rhand -14.3063 -37.0986
rfingers 7.12502
rthumb 11.8337 -66.7442
lclavicle -8.64713e-015 -8.98507e-014
lhumerus -11.0102 0.965973 65.6356
lradius 45.5087
lwrist 6.14127
lhand -22.9402 -25.6924
lfingers 7.12502
lthumb 3.50087 4.25857
rfemur -22.6231 -15.4268 8.44002
rtibia 9.83638
rfoot -15.811 -12.3473
rtoes 24.2553
lfemur 21.8016 4.02054 -32.925
ltibia 5.07221
lfoot -20.0555 6.40788
ltoes -27.7286
